HIERARCHY
ROOT Hips
{
	OFFSET 0.00000 0.00000 0.00000
	CHANNELS 6 Xposition Yposition Zposition Zrotation Yrotation Xrotation 
	JOINT LHipJoint
	{
		OFFSET 0 0 0
		CHANNELS 3 Zrotation Yrotation Xrotation
		JOINT LeftUpLeg
		{
			OFFSET 1.64549 -1.70879 0.84566
			CHANNELS 3 Zrotation Yrotation Xrotation
			JOINT LeftLeg
			{
				OFFSET 2.24963 -6.18082 0.00000
				CHANNELS 3 Zrotation Yrotation Xrotation
				JOINT LeftFoot
				{
					OFFSET 2.71775 -7.46697 0.00000
					CHANNELS 3 Zrotation Yrotation Xrotation
					JOINT LeftToeBase
					{
						OFFSET 0.18768 -0.51564 2.24737
						CHANNELS 3 Zrotation Yrotation Xrotation
						End Site
						{
							OFFSET 0.00000 -0.00000 1.15935
						}
					}
				}
			}
		}
	}
	JOINT RHipJoint
	{
		OFFSET 0 0 0
		CHANNELS 3 Zrotation Yrotation Xrotation
		JOINT RightUpLeg
		{
			OFFSET -1.58830 -1.70879 0.84566
			CHANNELS 3 Zrotation Yrotation Xrotation
			JOINT RightLeg
			{
				OFFSET -2.25006 -6.18201 0.00000
				CHANNELS 3 Zrotation Yrotation Xrotation
				JOINT RightFoot
				{
					OFFSET -2.72829 -7.49593 0.00000
					CHANNELS 3 Zrotation Yrotation Xrotation
					JOINT RightToeBase
					{
						OFFSET -0.21541 -0.59185 2.10643
						CHANNELS 3 Zrotation Yrotation Xrotation
						End Site
						{
							OFFSET -0.00000 -0.00000 1.09838
						}
					}
				}
			}
		}
	}
	JOINT LowerBack
	{
		OFFSET 0 0 0
		CHANNELS 3 Zrotation Yrotation Xrotation
		JOINT Spine
		{
			OFFSET 0.03142 2.10496 -0.11038
			CHANNELS 3 Zrotation Yrotation Xrotation
			JOINT Spine1
			{
				OFFSET -0.01863 2.10897 -0.06956
				CHANNELS 3 Zrotation Yrotation Xrotation
				JOINT Neck
				{
					OFFSET 0 0 0
					CHANNELS 3 Zrotation Yrotation Xrotation
					JOINT Neck1
					{
						OFFSET -0.02267 1.73238 0.00451
						CHANNELS 3 Zrotation Yrotation Xrotation
						JOINT Head
						{
							OFFSET -0.05808 1.54724 -0.61749
							CHANNELS 3 Zrotation Yrotation Xrotation
							End Site
							{
								OFFSET -0.01396 1.71468 -0.21082
							}
						}
					}
				}
				JOINT LeftShoulder
				{
					OFFSET 0 0 0
					CHANNELS 3 Zrotation Yrotation Xrotation
					JOINT LeftArm
					{
						OFFSET 3.44898 0.50298 0.21920
						CHANNELS 3 Zrotation Yrotation Xrotation
						JOINT LeftForeArm
						{
							OFFSET 5.41917 -0.00000 -0.00000
							CHANNELS 3 Zrotation Yrotation Xrotation
							JOINT LeftHand
							{
								OFFSET 2.44373 -0.00000 0.00000
								CHANNELS 3 Zrotation Yrotation Xrotation
								JOINT LeftFingerBase
								{
									OFFSET 0 0 0
									CHANNELS 3 Zrotation Yrotation Xrotation
									JOINT LeftHandIndex1
									{
										OFFSET 0.72750 -0.00000 0.00000
										CHANNELS 3 Zrotation Yrotation Xrotation
										End Site
										{
											OFFSET 0.58653 -0.00000 0.00000
										}
									}
								}
								JOINT LThumb
								{
									OFFSET 0 0 0
									CHANNELS 3 Zrotation Yrotation Xrotation
									End Site
									{
										OFFSET 0.59549 -0.00000 0.59549
									}
								}
							}
						}
					}
				}
				JOINT RightShoulder
				{
					OFFSET 0 0 0
					CHANNELS 3 Zrotation Yrotation Xrotation
					JOINT RightArm
					{
						OFFSET -3.23015 0.55830 0.31051
						CHANNELS 3 Zrotation Yrotation Xrotation
						JOINT RightForeArm
						{
							OFFSET -5.58976 -0.00010 0.00014
							CHANNELS 3 Zrotation Yrotation Xrotation
							JOINT RightHand
							{
								OFFSET -2.48060 -0.00000 0.00000
								CHANNELS 3 Zrotation Yrotation Xrotation
								JOINT RightFingerBase
								{
									OFFSET 0 0 0
									CHANNELS 3 Zrotation Yrotation Xrotation
									JOINT RightHandIndex1
									{
										OFFSET -0.81601 -0.00000 0.00000
										CHANNELS 3 Zrotation Yrotation Xrotation
										End Site
										{
											OFFSET -0.65789 -0.00000 0.00000
										}
									}
								}
								JOINT RThumb
								{
									OFFSET 0 0 0
									CHANNELS 3 Zrotation Yrotation Xrotation
									End Site
									{
										OFFSET -0.66793 -0.00000 0.66793
									}
								}
							}
						}
					}
				}
			}
		}
	}
}
MOTION
Frames: 16
Frame Time: .0083333
0.4946 16.4574 33.83 0 0 0 0 0 0 -21 0 0 0 0 0 0 0 0 0 0 0 0 0 0 21 0 0 0 0 0 0 0 0 0 0 0 0 0 0 0 0 0 0 0 0 0 0 -16 0 0 21 0 0 11 0 0 0 -8 0 0 0 0 0 0 0 0 0 0 0 0 0 0 0 0 0 0 0 0 8 0 0 0 0 0 0 0 0 0 0 0 0 0 0 0 0 0
0.4946 16.4574 33.8300 -175.6320 0.4832 -152.7450 0.0000 0.0000 0.0000 -22.4644 16.0679 -40.0319 10.1396 17.4876 59.9538 -5.6969 48.7281 15.0212 1.3852 7.4469 21.0463 0.0000 0.0000 0.0000 31.5447 16.6822 -41.5331 -5.1527 -13.5537 41.4783 -5.1893 -15.0605 -49.5145 -3.5797 -11.5791 34.2587 3.5475 1.3145 -18.4145 1.4035 3.4351 -10.7228 0.0411 2.5834 -1.1724 -1.6970 0.6873 -13.9734 1.1304 -2.1023 34.8320 0.1318 -2.1158 14.2953 -0.0000 -0.0000 0.0000 -82.0206 22.6634 13.7056 10.0816 -16.8672 -1.4985 -0.0000 0.0000 -0.7827 -29.8500 18.8392 -10.4983 -7.1250 0.0000 -0.0000 -49.4462 42.8356 3.6722 -0.0000 -0.0000 0.0000 80.8621 -16.7763 30.6677 -8.0706 13.6672 -0.9687 0.0000 -0.0000 -1.7940 21.2888 6.9879 2.7141 7.1250 -0.0000 -0.0000 33.0175 -22.0515 22.1020
0.4927 16.4537 33.8227 -175.5320 0.4142 -152.7680 0.0000 0.0000 0.0000 -22.3892 16.1755 -40.0522 10.1362 17.4857 59.9427 -5.5070 48.6235 15.6351 1.2490 7.0858 19.9698 0.0000 0.0000 0.0000 31.7177 16.5206 -41.4300 -5.1487 -13.5494 41.4613 -5.4003 -14.7219 -50.1061 -3.7691 -11.8466 35.1916 3.6696 1.3430 -18.4830 1.4307 3.4469 -10.6852 0.0091 2.5847 -1.0943 -1.7402 0.6884 -13.8853 1.1459 -2.1255 34.8963 0.1401 -2.1393 14.3058 0.0000 0.0000 0.0000 -82.0314 22.5837 13.5126 10.0548 -16.8253 -1.4908 -0.0000 0.0000 -0.8045 -29.8023 18.9727 -10.5484 -7.1250 0.0000 -0.0000 -49.5106 42.9475 3.4859 0.0000 0.0000 0.0000 80.8410 -16.8165 30.6975 -8.0826 13.6867 -0.9716 0.0000 -0.0000 -1.6793 21.1144 7.0334 2.7072 7.1250 -0.0000 -0.0000 32.9082 -22.0300 22.0149
0.4928 16.4566 33.8147 -175.5720 0.4022 -152.7990 0.0000 0.0000 0.0000 -22.4522 16.2451 -40.0193 10.1312 17.4830 59.9261 -6.1815 49.1274 13.6565 1.5030 7.7435 21.9375 0.0000 0.0000 0.0000 31.6145 16.6186 -41.3556 -5.1457 -13.5460 41.4483 -5.4580 -14.9131 -50.4135 -3.8872 -12.0087 35.7628 3.6529 1.3917 -18.4958 1.3770 3.5136 -10.6849 -0.0256 2.6173 -1.0828 -1.7852 0.6405 -13.7474 1.1629 -2.2160 34.9138 0.1401 -2.1899 14.2851 -0.0000 0.0000 0.0000 -81.9393 22.5428 13.3821 9.9965 -16.7341 -1.4739 -0.0000 0.0000 -0.7140 -29.9075 18.9510 -10.5810 -7.1250 0.0000 -0.0000 -49.5584 42.9137 3.5512 -0.0000 0.0000 0.0000 80.8907 -16.8935 30.7389 -8.0623 13.6539 -0.9668 0.0000 -0.0000 -1.7354 21.0612 7.0613 2.7103 7.1250 -0.0000 -0.0000 32.8711 -22.0109 21.9967
0.4920 16.4433 33.8118 -175.5880 0.3389 -152.8240 0.0000 0.0000 0.0000 -22.4574 16.2429 -40.0376 10.1581 17.4978 60.0155 -6.9673 49.5871 11.1441 1.8260 8.4938 24.2244 0.0000 0.0000 0.0000 31.5640 16.7430 -41.2594 -5.1249 -13.5231 41.3595 -5.4779 -14.7244 -50.3880 -3.8516 -11.9602 35.5914 3.6295 1.3897 -18.4698 1.4073 3.5084 -10.6583 0.0183 2.6143 -1.0699 -1.9417 0.6322 -13.7358 1.2044 -2.2193 34.9887 0.1819 -2.2130 14.3187 -0.0000 -0.0000 0.0000 -82.0183 22.4831 13.1301 9.9581 -16.6740 -1.4629 -0.0000 0.0000 -0.5804 -29.8427 18.9050 -10.5298 -7.1250 0.0000 -0.0000 -49.4876 42.8882 3.5861 -0.0000 -0.0000 0.0000 80.8456 -16.8702 30.5281 -8.0448 13.6254 -0.9626 0.0000 -0.0000 -1.3671 21.2778 6.9836 2.7109 7.1250 -0.0000 -0.0000 33.0125 -22.0566 22.0921
0.4937 16.4544 33.8042 -175.5490 0.2259 -152.8650 0.0000 0.0000 0.0000 -22.3578 16.1542 -39.9490 10.1492 17.4929 59.9860 -7.1047 49.5636 10.5173 1.8924 8.6383 24.6702 0.0000 0.0000 0.0000 31.6783 16.6597 -41.2171 -5.1419 -13.5418 41.4320 -5.4354 -14.2768 -50.0051 -3.8132 -11.9076 35.4059 3.6958 1.3653 -18.3747 1.4440 3.4506 -10.6072 0.0068 2.5761 -1.0638 -2.0363 0.6405 -13.9501 1.2554 -2.2038 35.1268 0.2177 -2.2125 14.4323 0.0000 0.0000 0.0000 -82.0903 22.2864 12.7514 9.8969 -16.5781 -1.4454 -0.0000 0.0000 -0.4680 -29.8754 19.0721 -10.6312 -7.1250 0.0000 -0.0000 -49.6239 43.0133 3.3857 0.0000 0.0000 0.0000 80.8057 -16.7545 30.4482 -8.0356 13.6105 -0.9605 0.0000 -0.0000 -1.1853 21.4778 7.0588 2.7682 7.1250 -0.0000 -0.0000 33.1038 -21.9668 22.2690
0.4919 16.4440 33.8020 -175.6880 0.2313 -152.8280 0.0000 0.0000 0.0000 -22.5266 16.0827 -40.0136 10.1668 17.5026 60.0445 -6.8919 49.5334 11.3694 1.8207 8.4822 24.1885 0.0000 0.0000 0.0000 31.4429 16.8293 -41.2240 -5.1305 -13.5292 41.3834 -5.4768 -14.6318 -50.3364 -3.7504 -11.8206 35.1004 3.5717 1.3561 -18.3226 1.3970 3.4710 -10.6578 0.0249 2.5929 -1.1459 -1.9961 0.6317 -13.9703 1.1986 -2.2118 35.1592 0.1853 -2.2193 14.4510 0.0000 0.0000 0.0000 -82.0575 22.3624 12.8890 9.9434 -16.6510 -1.4587 -0.0000 0.0000 -0.6424 -29.8277 19.2062 -10.6813 -7.1250 0.0000 -0.0000 -49.6895 43.1253 3.1981 0.0000 0.0000 0.0000 80.7798 -16.8180 30.5183 -8.1182 13.7443 -0.9800 0.0000 -0.0000 -1.4407 21.8932 6.5856 2.6388 7.1250 -0.0000 -0.0000 33.4602 -22.3422 22.2571
0.4893 16.4552 33.7961 -175.6690 0.2116 -152.8220 0.0000 0.0000 0.0000 -22.5644 16.1343 -39.9843 10.1363 17.4858 59.9428 -6.9706 49.6169 11.1821 1.8478 8.5416 24.3715 0.0000 0.0000 0.0000 31.5247 16.6100 -41.3109 -5.1567 -13.5581 41.4955 -5.4597 -14.1162 -50.0122 -3.8790 -11.9977 35.7238 3.6381 1.3851 -18.2347 1.3681 3.5226 -10.7298 -0.0425 2.6198 -1.2642 -1.8494 0.6690 -13.7951 1.1111 -2.2023 35.1957 0.1243 -2.2192 14.4251 0.0000 0.0000 0.0000 -81.9916 22.5095 12.9966 9.9589 -16.6753 -1.4631 -0.0000 0.0000 -0.7650 -29.6375 19.0452 -10.5175 -7.1250 0.0000 -0.0000 -49.4622 43.0304 3.3357 0.0000 0.0000 0.0000 80.7813 -16.9578 30.8921 -8.2291 13.9235 -1.0065 0.0000 -0.0000 -1.9708 22.1671 6.1192 2.4868 7.1250 -0.0000 -0.0000 33.7385 -22.7264 22.1511
0.4844 16.4514 33.7907 -175.6700 0.0840 -152.8340 0.0000 0.0000 0.0000 -22.5458 16.0901 -39.9231 10.1204 17.4770 59.8900 -6.2873 49.1535 13.2623 1.6088 7.9986 22.7100 0.0000 0.0000 0.0000 31.5637 16.4130 -41.3488 -5.1537 -13.5548 41.4824 -5.4985 -14.3774 -50.2855 -3.7595 -11.8333 35.1448 3.7845 1.4161 -18.1196 1.3039 3.5701 -10.8140 -0.1949 2.6403 -1.4048 -1.8415 0.6989 -13.6214 1.1869 -2.2336 35.2755 0.1467 -2.2365 14.4240 0.0000 0.0000 0.0000 -81.8456 22.7280 13.4977 10.0618 -16.8361 -1.4928 -0.0000 0.0000 -1.2065 -29.5920 19.1112 -10.5327 -7.1250 0.0000 -0.0000 -49.4808 43.0891 3.2362 0.0000 0.0000 0.0000 80.8549 -17.0866 30.8236 -8.2363 13.9352 -1.0083 0.0000 -0.0000 -1.9682 22.2827 6.0819 2.4860 7.1250 -0.0000 -0.0000 33.8124 -22.7458 22.2046
0.4787 16.4532 33.7763 -175.7720 -0.1677 -153.0220 0.0000 0.0000 0.0000 -22.4980 16.0238 -39.5249 10.0775 17.4532 59.7472 -6.1864 49.0315 13.4843 1.6028 7.9844 22.6668 0.0000 0.0000 0.0000 31.6971 15.7779 -41.3561 -5.1667 -13.5691 41.5380 -5.2884 -14.6555 -49.6637 -3.4835 -11.4394 33.7767 3.8574 1.4020 -17.9517 1.2189 3.5471 -10.8346 -0.3395 2.6190 -1.5052 -1.7915 0.6771 -13.4040 1.2017 -2.3183 35.2737 0.1307 -2.2750 14.3753 -0.0000 -0.0000 0.0000 -81.6664 22.8757 13.9453 10.1164 -16.9214 -1.5086 -0.0000 0.0000 -1.5331 -29.5787 19.0816 -10.5118 -7.1250 0.0000 -0.0000 -49.4521 43.0682 3.2690 -0.0000 -0.0000 0.0000 80.9538 -17.2655 30.7562 -8.2214 13.9112 -1.0047 0.0000 -0.0000 -1.9051 22.0481 6.5060 2.6275 7.1250 -0.0000 -0.0000 33.5671 -22.3951 22.3111
0.4776 16.4470 33.7691 -175.8310 -0.2734 -153.2750 0.0000 0.0000 0.0000 -22.4505 16.0388 -39.1659 10.0647 17.4461 59.7044 -6.4782 49.1855 12.5203 1.6964 8.2028 23.3318 0.0000 0.0000 0.0000 31.6104 15.8541 -40.9315 -5.1501 -13.5509 41.4673 -5.5819 -13.6893 -50.2440 -3.5742 -11.5711 34.2312 3.8764 1.4198 -17.6560 1.1396 3.5736 -10.8657 -0.4475 2.6205 -1.6831 -1.6784 0.6321 -13.1517 1.1718 -2.4647 35.3235 0.0739 -2.3450 14.3425 -0.0000 -0.0000 0.0000 -81.4696 23.0497 14.4156 10.1459 -16.9675 -1.5173 -0.0000 0.0000 -1.8038 -29.5060 19.1115 -10.4970 -7.1250 0.0000 -0.0000 -49.4290 43.1030 3.2059 -0.0000 -0.0000 0.0000 81.0701 -17.4801 30.7027 -8.2077 13.8890 -1.0014 0.0000 -0.0000 -1.9282 21.7843 6.9528 2.7698 7.1250 -0.0000 -0.0000 33.3016 -22.0265 22.4083
0.4711 16.4526 33.7491 -175.5720 -0.5678 -153.4120 0.0000 0.0000 0.0000 -22.0349 15.9952 -38.8867 10.0491 17.4374 59.6523 -6.4982 49.1826 12.4322 1.6466 8.0875 22.9803 0.0000 0.0000 0.0000 32.1129 15.2057 -40.8838 -5.1501 -13.5508 41.4671 -5.4769 -13.8448 -49.9386 -3.6115 -11.6246 34.4165 4.3068 1.4806 -17.8473 1.1955 3.5420 -10.6759 -0.6140 2.5786 -1.3690 -1.6766 0.5946 -13.1618 1.1673 -2.4991 35.2579 0.0688 -2.3523 14.3153 0.0000 -0.0000 0.0000 -81.4561 22.8925 14.6248 10.1761 -17.0146 -1.5261 -0.0000 0.0000 -1.9747 -29.3788 19.1653 -10.4715 -7.1250 0.0000 -0.0000 -49.3893 43.1651 3.0941 0.0000 -0.0000 0.0000 81.0831 -17.3364 30.5749 -8.2176 13.9049 -1.0038 0.0000 -0.0000 -1.8748 21.6697 7.2299 2.8627 7.1250 -0.0000 -0.0000 33.1650 -21.7919 22.4990
0.4679 16.4404 33.7453 -175.5200 -0.5763 -153.4610 0.0000 0.0000 0.0000 -21.9725 15.9579 -38.8446 10.0763 17.4526 59.7432 -6.5926 49.1801 12.0310 1.6446 8.0828 22.9658 0.0000 0.0000 0.0000 32.1323 15.2365 -40.7410 -5.1252 -13.5234 41.3607 -5.5974 -13.7546 -50.3325 -3.7650 -11.8409 35.1714 4.4174 1.5467 -17.9054 1.1879 3.5908 -10.6017 -0.6685 2.5934 -1.2523 -1.7481 0.5786 -13.0262 1.2433 -2.5384 35.2139 0.1080 -2.3712 14.2670 0.0000 0.0000 0.0000 -81.4612 22.7352 14.3161 10.0835 -16.8700 -1.4991 -0.0000 0.0000 -1.6935 -29.4234 18.8969 -10.3517 -7.1250 0.0000 -0.0000 -49.2298 42.9489 3.4474 0.0000 0.0000 0.0000 81.0825 -17.3369 30.3660 -8.2971 14.0334 -1.0230 0.0000 -0.0000 -1.8158 21.8398 7.1303 2.8479 7.1250 -0.0000 -0.0000 33.2850 -21.8614 22.5525
0.4678 16.4466 33.7451 -175.4140 -0.5290 -153.2820 0.0000 0.0000 0.0000 -21.9428 15.9026 -39.0689 10.0819 17.4557 59.7618 -6.6459 49.1651 11.7799 1.6757 8.1552 23.1865 0.0000 0.0000 0.0000 32.2595 15.2397 -40.9621 -5.1325 -13.5314 41.3919 -5.4327 -13.7849 -49.7467 -3.5929 -11.5980 34.3244 4.5410 1.6248 -17.9538 1.1690 3.7162 -10.7153 -0.7394 2.6641 -1.3422 -1.7811 0.5687 -12.7434 1.2947 -2.6127 35.2337 0.1230 -2.4177 14.2148 -0.0000 -0.0000 0.0000 -81.3986 22.8081 14.1231 10.0439 -16.8082 -1.4876 -0.0000 0.0000 -1.4584 -29.5060 18.8010 -10.3361 -7.1250 0.0000 -0.0000 -49.2133 42.8608 3.5970 -0.0000 -0.0000 0.0000 81.0973 -17.5661 30.4229 -8.4022 14.2027 -1.0486 0.0000 -0.0000 -1.9981 22.0477 6.7987 2.7449 7.1250 -0.0000 -0.0000 33.4878 -22.1334 22.4902
0.4736 16.4352 33.7547 -175.3570 -0.3828 -153.0850 0.0000 0.0000 0.0000 -21.9764 15.8996 -39.4304 10.1169 17.4751 59.8785 -6.8076 49.2576 11.2505 1.7637 8.3554 23.7989 0.0000 0.0000 0.0000 32.1874 15.7119 -41.0567 -5.1118 -13.5086 41.3033 -5.3576 -14.8705 -50.0284 -3.2769 -11.1303 32.7206 4.4669 1.6719 -17.9466 1.1787 3.8249 -10.8225 -0.6756 2.7328 -1.4623 -1.7037 0.5619 -12.6239 1.2039 -2.6316 35.2424 0.0698 -2.4342 14.1898 0.0000 0.0000 0.0000 -81.3727 22.8877 14.1782 10.0924 -16.8840 -1.5017 -0.0000 0.0000 -1.4596 -29.6126 18.9734 -10.4698 -7.1250 0.0000 -0.0000 -49.3972 42.9784 3.4176 0.0000 0.0000 0.0000 81.0691 -17.5989 30.5213 -8.4107 14.2164 -1.0507 0.0000 -0.0000 -2.0090 22.2469 6.7346 2.7463 7.1250 -0.0000 -0.0000 33.6144 -22.1670 22.5843
0.4734 16.4439 33.7440 -175.3040 -0.2793 -153.1240 0.0000 0.0000 0.0000 -21.9747 16.0403 -39.3577 10.0971 17.4641 59.8124 -6.8895 49.3082 10.9880 1.7655 8.3594 23.8112 0.0000 0.0000 0.0000 32.2687 15.6339 -40.9654 -5.1200 -13.5177 41.3386 -5.3915 -14.0023 -49.7053 -3.3885 -11.2989 33.2946 4.5210 1.7616 -17.9410 1.1492 3.9184 -10.7755 -0.7188 2.7708 -1.4056 -1.5943 0.5565 -12.6455 1.1120 -2.6386 35.2666 0.0117 -2.4343 14.2032 0.0000 -0.0000 0.0000 -81.3639 22.7715 13.6876 10.0173 -16.7666 -1.4799 -0.0000 0.0000 -1.0262 -29.8434 18.9105 -10.5330 -7.1250 0.0000 -0.0000 -49.4918 42.8924 3.5794 0.0000 -0.0000 0.0000 81.0983 -17.5105 30.5835 -8.3462 14.1126 -1.0349 0.0000 -0.0000 -1.9999 22.1151 6.9426 2.8121 7.1250 -0.0000 -0.0000 33.4862 -21.9968 22.6230
